<svg xmlns="http://www.w3.org/2000/svg" data-name="Layer 1" viewBox="0 0 64 64"><defs><linearGradient id="a" x2="64" y1="32" y2="32" gradientUnits="userSpaceOnUse"><stop offset=".15" stop-color="#af6dfc"/><stop offset=".61" stop-color="#6e33ff"/></linearGradient></defs><circle cx="32" cy="32" r="32" fill="url(#a)"/><path fill="#fff" d="M47.23 35.67l-5.07 2.44a4.26 4.26 0 0 1-1.71.42l-5.92.13A1.66 1.66 0 0 0 33 40a2 2 0 0 0 0 .39 1.64 1.64 0 0 0 .51 1.16 1.5 1.5 0 0 0 1.18.37h4.76a.37.37 0 0 1 .37.37.36.36 0 0 1-.37.36H34.54A2.27 2.27 0 0 1 32.92 42a2.41 2.41 0 0 1-.73-1.58L23.7 36.29a1.75 1.75 0 0 0-2.07.39c-.47.81-.31 1.41.57 2l13.08 8.95a4 4 0 0 0 3.61.45l8.61-3.17a4.09 4.09 0 0 1 1.38-.24h1.39V35.33H48.73A3.43 3.43 0 0 0 47.23 35.67zM54.7 34.39H51.4a.4.4 0 0 0-.4.41V45.06h0v.18a.41.41 0 0 0 .4.41h3.3a.42.42 0 0 0 .4-.41V34.8A.41.41 0 0 0 54.7 34.39zM12.75 18.9h-3a.85.85 0 0 0-.86.85v10a.85.85 0 0 0 .86.85h3a.83.83 0 0 0 .85-.85V19.66A.85.85 0 0 0 12.75 18.9zM25.85 31.41h5.6l.32 0a.41.41 0 0 0 .16 0h0A2.11 2.11 0 0 0 33 30.76a2.17 2.17 0 0 0 .65-1.7 2.24 2.24 0 0 0-1.6-2h0a1.1 1.1 0 0 0-.26-.06l-.1 0a1.84 1.84 0 0 0-.33 0H24.7a7.56 7.56 0 0 0 2.72-4.84c.41.88 1.94 1.7 3.28 2.67a6.69 6.69 0 0 1 3.54-2.11C33.16 21.07 31.7 19.16 30.9 18a5.41 5.41 0 0 0-6.29-2l-8 3.26a6.59 6.59 0 0 1-2.28.43V29.77a.86.86 0 0 1 0 .28c4.11 3 9 1.93 10.53 1.5A4 4 0 0 1 25.85 31.41z"/><path fill="#fff" d="M31.23,25.3a4.09,4.09,0,0,0-.4.51,4,4,0,0,0-.29.43h.8a3.54,3.54,0,0,1,.93.14,4.58,4.58,0,1,1,3.51,7.52,4.51,4.51,0,0,1-3.66-1.84,3.07,3.07,0,0,1-.67.08h-1a6.07,6.07,0,1,0,5.37-8.9h-.31A6.1,6.1,0,0,0,31.23,25.3Z"/><path fill="#fff" d="M35.61,30.86a1.8,1.8,0,0,1-.43,0l-.3-.1-.2-.11a.32.32,0,0,0-.16-.05h-.09s-.06,0-.08.08l0,.1a.53.53,0,0,0,0,.13.87.87,0,0,0,0,.18.35.35,0,0,0,.08.13.41.41,0,0,0,.12.09l.19.08.25.07.22,0-.06.61v.1a.13.13,0,0,0,.08.08l.09,0h.26l.09,0,.07-.1v0l.07-.64a2.15,2.15,0,0,0,.54-.11,1.38,1.38,0,0,0,.48-.26,1.11,1.11,0,0,0,.31-.4,1.23,1.23,0,0,0,.11-.51,1.29,1.29,0,0,0-.1-.51,1.1,1.1,0,0,0-.26-.34,1.18,1.18,0,0,0-.35-.23L36.14,29l-.39-.14a1.48,1.48,0,0,1-.31-.15.7.7,0,0,1-.22-.2.47.47,0,0,1-.07-.28.45.45,0,0,1,0-.2.33.33,0,0,1,.11-.15.62.62,0,0,1,.23-.11,1.16,1.16,0,0,1,.35,0,1.15,1.15,0,0,1,.33,0l.27.09.19.09a.43.43,0,0,0,.15.05h.07l0,0a.22.22,0,0,0,0-.08l0-.08v-.23l0-.14-.06-.08-.12-.08-.18-.07-.21-.06-.13,0,.06-.58v-.08a.17.17,0,0,0-.07-.08l-.08,0h-.27l-.09,0-.08.11v0l-.06.59a1.76,1.76,0,0,0-.49.11,1.29,1.29,0,0,0-.41.25,1,1,0,0,0-.24.37,1,1,0,0,0-.09.44,1.27,1.27,0,0,0,.1.5,1.24,1.24,0,0,0,.25.35,1.92,1.92,0,0,0,.35.23l.39.16.38.14a1.28,1.28,0,0,1,.31.15.67.67,0,0,1,.21.2.47.47,0,0,1,.08.28.52.52,0,0,1-.21.43A1.11,1.11,0,0,1,35.61,30.86Z"/></svg>